<svg width="58" height="58" viewBox="0 0 58 58" fill="none" xmlns="http://www.w3.org/2000/svg">
<g clip-path="url(#clip0_17_43)">
<mask id="mask0_17_43" style="mask-type:luminance" maskUnits="userSpaceOnUse" x="0" y="0" width="58" height="58">
<path d="M0 0H58V58H0V0Z" fill="white"/>
</mask>
<g mask="url(#mask0_17_43)">
<path fill-rule="evenodd" clip-rule="evenodd" d="M29 0C12.9775 0 0 12.9775 0 29C0 41.8325 8.30125 52.6713 19.8288 56.5138C21.2788 56.7675 21.8225 55.8975 21.8225 55.1363C21.8225 54.4475 21.7863 52.1637 21.7863 49.735C14.5 51.0763 12.615 47.9588 12.035 46.3275C11.7088 45.4938 10.295 42.92 9.0625 42.2313C8.0475 41.6875 6.5975 40.3463 9.02625 40.31C11.31 40.2738 12.9412 42.4125 13.485 43.2825C16.095 47.6688 20.2638 46.4362 21.9312 45.675C22.185 43.79 22.9463 42.5213 23.78 41.7963C17.3275 41.0713 10.585 38.57 10.585 27.4775C10.585 24.3238 11.7088 21.7138 13.5575 19.6838C13.2675 18.9588 12.2525 15.9863 13.8475 11.9988C13.8475 11.9988 16.2762 11.2375 21.8225 14.9713C24.1425 14.3188 26.6075 13.9925 29.0725 13.9925C31.5375 13.9925 34.0025 14.3188 36.3225 14.9713C41.8688 11.2013 44.2975 11.9988 44.2975 11.9988C45.8925 15.9863 44.8775 18.9588 44.5875 19.6838C46.4363 21.7138 47.56 24.2875 47.56 27.4775C47.56 38.6063 40.7812 41.0713 34.3288 41.7963C35.38 42.7025 36.2863 44.4425 36.2863 47.1613C36.2863 51.04 36.25 54.1575 36.25 55.1363C36.25 55.8975 36.7938 56.8038 38.2438 56.5138C44.0007 54.5701 49.0032 50.8701 52.5472 45.9345C56.0912 40.9989 57.9983 35.0762 58 29C58 12.9775 45.0225 0 29 0Z" fill="white"/>
</g>
</g>
<defs>
<clipPath id="clip0_17_43">
<rect width="58" height="58" fill="white"/>
</clipPath>
</defs>
</svg>
