<svg width="58" height="58" viewBox="0 0 58 58" fill="none" xmlns="http://www.w3.org/2000/svg">
<path d="M29 3.625C14.9871 3.625 3.625 14.9871 3.625 29C3.625 43.0129 14.9871 54.375 29 54.375C43.0129 54.375 54.375 43.0129 54.375 29C54.375 14.9871 43.0129 3.625 29 3.625ZM41.1947 22.7525C41.2117 23.0188 41.2117 23.2963 41.2117 23.5682C41.2117 31.883 34.8793 41.4609 23.3076 41.4609C19.7393 41.4609 16.4314 40.4244 13.6447 38.6402C14.1545 38.6969 14.6416 38.7195 15.1627 38.7195C18.108 38.7195 20.8154 37.7227 22.9734 36.0348C20.2094 35.9781 17.8871 34.1656 17.0941 31.6734C18.0627 31.815 18.935 31.815 19.9318 31.5602C18.5086 31.271 17.2294 30.498 16.3115 29.3726C15.3935 28.2472 14.8936 26.8386 14.8965 25.3863V25.307C15.7291 25.7771 16.709 26.066 17.7342 26.1057C16.8723 25.5313 16.1656 24.7531 15.6765 23.8402C15.1874 22.9273 14.9312 21.9078 14.9305 20.8721C14.9305 19.6996 15.2363 18.6291 15.7857 17.7002C17.3655 19.6449 19.3367 21.2354 21.5714 22.3683C23.806 23.5013 26.2541 24.1513 28.7564 24.2762C27.8672 19.9998 31.0617 16.5391 34.902 16.5391C36.7145 16.5391 38.3457 17.298 39.4955 18.5215C40.9172 18.2553 42.2766 17.7229 43.4887 17.0092C43.0186 18.4648 42.033 19.6939 40.7246 20.4699C41.9934 20.334 43.2168 19.9828 44.3496 19.49C43.4943 20.7475 42.4238 21.8633 41.1947 22.7525Z" fill="white"/>
</svg>
