<svg width="58" height="12" viewBox="0 0 58 12" fill="none" xmlns="http://www.w3.org/2000/svg">
<path d="M1 5.25C0.585786 5.25 0.25 5.58579 0.25 6C0.25 6.41421 0.585786 6.75 1 6.75L1 5.25ZM57.5303 6.53034C57.8232 6.23744 57.8232 5.76257 57.5303 5.46967L52.7574 0.696704C52.4645 0.40381 51.9896 0.40381 51.6967 0.696704C51.4038 0.989597 51.4038 1.46447 51.6967 1.75736L55.9393 6L51.6967 10.2426C51.4038 10.5355 51.4038 11.0104 51.6967 11.3033C51.9896 11.5962 52.4645 11.5962 52.7574 11.3033L57.5303 6.53034ZM1 6.75L57 6.75L57 5.25L1 5.25L1 6.75Z" fill="white"/>
</svg>
