<svg width="167" height="12" viewBox="0 0 167 12" fill="none" xmlns="http://www.w3.org/2000/svg">
<path d="M1 5.25C0.585786 5.25 0.25 5.58579 0.25 6C0.25 6.41421 0.585786 6.75 1 6.75L1 5.25ZM166.53 6.53032C166.823 6.23742 166.823 5.76255 166.53 5.46966L161.757 0.696685C161.464 0.403792 160.99 0.403792 160.697 0.696685C160.404 0.989579 160.404 1.46445 160.697 1.75735L164.939 5.99999L160.697 10.2426C160.404 10.5355 160.404 11.0104 160.697 11.3033C160.99 11.5962 161.464 11.5962 161.757 11.3033L166.53 6.53032ZM1 6.75L166 6.74999L166 5.24999L1 5.25L1 6.75Z" fill="white"/>
</svg>
