<svg width="152" height="12" viewBox="0 0 152 12" fill="none" xmlns="http://www.w3.org/2000/svg">
<path d="M1 5.25C0.585786 5.25 0.25 5.58579 0.25 6C0.25 6.41421 0.585786 6.75 1 6.75L1 5.25ZM151.53 6.53032C151.823 6.23742 151.823 5.76255 151.53 5.46966L146.757 0.696686C146.464 0.403793 145.99 0.403793 145.697 0.696686C145.404 0.98958 145.404 1.46445 145.697 1.75735L149.939 5.99999L145.697 10.2426C145.404 10.5355 145.404 11.0104 145.697 11.3033C145.99 11.5962 146.464 11.5962 146.757 11.3033L151.53 6.53032ZM1 6.75L151 6.74999L151 5.24999L1 5.25L1 6.75Z" fill="white"/>
</svg>
