<svg width="54" height="54" viewBox="0 0 54 54" fill="none" xmlns="http://www.w3.org/2000/svg">
<mask id="mask0_17_59" style="mask-type:luminance" maskUnits="userSpaceOnUse" x="0" y="0" width="54" height="54">
<path d="M0 0.126953L52.9693 0.0224238L53.1441 53.0019L0.174788 53.1064L0 0.126953Z" fill="white"/>
</mask>
<g mask="url(#mask0_17_59)">
<path fill-rule="evenodd" clip-rule="evenodd" d="M26.485 0.0746879C11.852 0.103564 0.0391093 11.9812 0.087395 26.617C0.126067 38.3388 7.74007 48.2245 18.2794 51.7137C19.6045 51.9429 20.0984 51.1472 20.0961 50.4518C20.0941 49.8227 20.0541 47.7367 20.0468 45.5181C13.3964 46.7564 11.6655 43.9121 11.1309 42.4231C10.8304 41.6621 9.53153 39.3137 8.40384 38.6867C7.47523 38.1919 6.14693 36.9693 8.36494 36.9318C10.4505 36.8946 11.9468 38.8453 12.446 39.639C14.8428 43.641 18.6464 42.5076 20.1669 41.8092C20.393 40.0869 21.0844 38.9266 21.8437 38.2629C15.9486 37.6122 9.78327 35.3396 9.74984 25.2072C9.74034 22.3264 10.7588 19.9403 12.4411 18.0826C12.174 17.4209 11.2381 14.7075 12.6828 11.0623C12.6828 11.0623 14.8986 10.3625 19.9751 13.7631C22.0919 13.1629 24.3422 12.8604 26.5934 12.856C28.8446 12.8516 31.0968 13.1451 33.2176 13.737C38.2715 10.2833 40.492 11.0074 40.492 11.0074C41.9607 14.6469 41.0427 17.3639 40.7801 18.0267C42.4746 19.8777 43.5086 22.2266 43.5183 25.1406C43.5518 35.3061 37.3683 37.57 31.4776 38.2439C32.4404 39.0698 33.2733 40.6575 33.2815 43.141C33.2932 46.684 33.2695 49.5318 33.2724 50.4258C33.2747 51.1212 33.7741 51.948 35.0974 51.6805C40.3493 49.8947 44.9068 46.5059 48.1286 41.9911C51.3503 37.4763 53.0742 32.0628 53.0574 26.5125C53.0092 11.8767 41.118 0.0458114 26.485 0.0746879Z" fill="white"/>
</g>
</svg>
