<svg width="58" height="58" viewBox="0 0 58 58" fill="none" xmlns="http://www.w3.org/2000/svg">
<path d="M46.5692 12.8808C43.355 11.3824 39.875 10.2949 36.25 9.66662C36.2182 9.6656 36.1866 9.67156 36.1574 9.68409C36.1282 9.69662 36.102 9.7154 36.0809 9.73912C35.6459 10.5366 35.1384 11.5758 34.8 12.3733C30.9551 11.7933 27.0449 11.7933 23.2 12.3733C22.8617 11.5516 22.3542 10.5366 21.895 9.73912C21.8709 9.69078 21.7984 9.66662 21.7259 9.66662C18.1009 10.2949 14.645 11.3824 11.4067 12.8808C11.3825 12.8808 11.3584 12.9049 11.3342 12.9291C4.76085 22.7649 2.94835 32.3349 3.84252 41.8083C3.84252 41.8566 3.86669 41.9049 3.91502 41.9291C8.26502 45.1191 12.4459 47.0524 16.5784 48.3333C16.6509 48.3574 16.7234 48.3333 16.7475 48.2849C17.7142 46.9558 18.5842 45.5541 19.3334 44.0799C19.3817 43.9833 19.3334 43.8866 19.2367 43.8624C17.8592 43.3308 16.5542 42.7024 15.2734 41.9775C15.1767 41.9291 15.1767 41.7841 15.2492 41.7116C15.515 41.5183 15.7809 41.3008 16.0467 41.1074C16.095 41.0591 16.1675 41.0591 16.2159 41.0833C24.5292 44.8774 33.495 44.8774 41.7117 41.0833C41.76 41.0591 41.8325 41.0591 41.8809 41.1074C42.1467 41.3249 42.4125 41.5183 42.6784 41.7358C42.775 41.8083 42.775 41.9533 42.6542 42.0016C41.3975 42.7508 40.0684 43.3549 38.6909 43.8866C38.5942 43.9108 38.57 44.0316 38.5942 44.1041C39.3675 45.5783 40.2375 46.9799 41.18 48.3091C41.2525 48.3333 41.325 48.3574 41.3975 48.3333C45.5542 47.0524 49.735 45.1191 54.085 41.9291C54.1334 41.9049 54.1575 41.8566 54.1575 41.8083C55.2209 30.8608 52.3933 21.3633 46.6659 12.9291C46.6417 12.9049 46.6175 12.8808 46.5692 12.8808ZM20.59 36.0324C18.1009 36.0324 16.0225 33.7366 16.0225 30.9091C16.0225 28.0816 18.0525 25.7858 20.59 25.7858C23.1517 25.7858 25.1817 28.1058 25.1575 30.9091C25.1575 33.7366 23.1275 36.0324 20.59 36.0324ZM37.4342 36.0324C34.945 36.0324 32.8667 33.7366 32.8667 30.9091C32.8667 28.0816 34.8967 25.7858 37.4342 25.7858C39.9959 25.7858 42.0259 28.1058 42.0017 30.9091C42.0017 33.7366 39.9959 36.0324 37.4342 36.0324Z" fill="white"/>
</svg>
