<svg width="53" height="54" viewBox="0 0 53 54" fill="none" xmlns="http://www.w3.org/2000/svg">
<path d="M45.9785 3.375H7.27508C5.16025 3.375 3.3125 4.92539 3.3125 7.0548V46.5761C3.3125 48.7171 5.16025 50.625 7.27508 50.625H45.9671C48.0934 50.625 49.6875 48.7044 49.6875 46.5761V7.0548C49.6999 4.92539 48.0934 3.375 45.9785 3.375ZM17.6877 42.7602H11.0441V21.7139H17.6877V42.7602ZM14.5957 18.514H14.5481C12.4219 18.514 11.0451 16.9014 11.0451 14.8827C11.0451 12.8271 12.4581 11.2525 14.6319 11.2525C16.8058 11.2525 18.1359 12.8155 18.1836 14.8827C18.1825 16.9014 16.8058 18.514 14.5957 18.514ZM41.9683 42.7602H35.3247V31.2525C35.3247 28.4955 34.3579 26.6119 31.9542 26.6119C30.1179 26.6119 29.031 27.8775 28.5475 29.1104C28.3664 29.5534 28.3177 30.1567 28.3177 30.7726V42.7602H21.6741V21.7139H28.3177V24.6428C29.2846 23.24 30.7949 21.2214 34.3092 21.2214C38.6703 21.2214 41.9694 24.1502 41.9694 30.4646L41.9683 42.7602Z" fill="white"/>
</svg>
