<svg width="57" height="58" viewBox="0 0 57 58" fill="none" xmlns="http://www.w3.org/2000/svg">
<path d="M23.75 36.2499L36.0762 28.9999L23.75 21.7499V36.2499ZM51.205 17.3274C51.5137 18.4633 51.7275 19.9858 51.87 21.9191C52.0363 23.8524 52.1075 25.5199 52.1075 26.9699L52.25 28.9999C52.25 34.2924 51.87 38.1833 51.205 40.6724C50.6112 42.8474 49.2337 44.2491 47.0962 44.8532C45.98 45.1674 43.9375 45.3849 40.8025 45.5299C37.715 45.6991 34.8888 45.7716 32.2763 45.7716L28.5 45.9166C18.5487 45.9166 12.35 45.5299 9.90375 44.8532C7.76625 44.2491 6.38875 42.8474 5.795 40.6724C5.48625 39.5366 5.2725 38.0141 5.13 36.0808C4.96375 34.1474 4.8925 32.4799 4.8925 31.0299L4.75 28.9999C4.75 23.7074 5.13 19.8166 5.795 17.3274C6.38875 15.1524 7.76625 13.7508 9.90375 13.1466C11.02 12.8324 13.0625 12.6149 16.1975 12.4699C19.285 12.3008 22.1112 12.2283 24.7237 12.2283L28.5 12.0833C38.4513 12.0833 44.65 12.4699 47.0962 13.1466C49.2337 13.7508 50.6112 15.1524 51.205 17.3274Z" fill="white"/>
</svg>
