<svg width="57" height="58" viewBox="0 0 57 58" fill="none" xmlns="http://www.w3.org/2000/svg">
<path d="M23.75 36.2502L36.0762 29.0002L23.75 21.7502V36.2502ZM51.205 17.3277C51.5137 18.4635 51.7275 19.986 51.87 21.9193C52.0363 23.8527 52.1075 25.5202 52.1075 26.9702L52.25 29.0002C52.25 34.2927 51.87 38.1835 51.205 40.6727C50.6112 42.8477 49.2337 44.2493 47.0962 44.8535C45.98 45.1677 43.9375 45.3852 40.8025 45.5302C37.715 45.6993 34.8888 45.7718 32.2763 45.7718L28.5 45.9168C18.5487 45.9168 12.35 45.5302 9.90375 44.8535C7.76625 44.2493 6.38875 42.8477 5.795 40.6727C5.48625 39.5368 5.2725 38.0143 5.13 36.081C4.96375 34.1477 4.8925 32.4802 4.8925 31.0302L4.75 29.0002C4.75 23.7077 5.13 19.8168 5.795 17.3277C6.38875 15.1527 7.76625 13.751 9.90375 13.1468C11.02 12.8327 13.0625 12.6152 16.1975 12.4702C19.285 12.301 22.1112 12.2285 24.7237 12.2285L28.5 12.0835C38.4513 12.0835 44.65 12.4702 47.0962 13.1468C49.2337 13.751 50.6112 15.1527 51.205 17.3277Z" fill="white"/>
</svg>
