<svg width="204" height="204" viewBox="0 0 204 204" fill="none" xmlns="http://www.w3.org/2000/svg">
<path d="M102 56C92.9021 56 84.0084 58.6978 76.4438 63.7524C68.8791 68.8069 62.9832 75.9912 59.5015 84.3966C56.0199 92.802 55.109 102.051 56.8839 110.974C58.6588 119.897 63.0399 128.094 69.4731 134.527C75.9063 140.96 84.1027 145.341 93.0258 147.116C101.949 148.891 111.198 147.98 119.603 144.498C128.009 141.017 135.193 135.121 140.248 127.556C145.302 119.992 148 111.098 148 102C147.984 89.8049 143.133 78.1139 134.509 69.4906C125.886 60.8674 114.195 56.0159 102 56ZM102 136C95.2754 136 88.7019 134.006 83.1106 130.27C77.5193 126.534 73.1615 121.224 70.5881 115.011C68.0147 108.799 67.3414 101.962 68.6533 95.3669C69.9652 88.7716 73.2034 82.7133 77.9584 77.9584C82.7133 73.2034 88.7716 69.9652 95.3669 68.6533C101.962 67.3414 108.799 68.0147 115.011 70.5881C121.224 73.1615 126.534 77.5193 130.27 83.1106C134.006 88.7019 136 95.2754 136 102C136 111.017 132.418 119.665 126.042 126.042C119.665 132.418 111.017 136 102 136ZM150 0H54C39.6832 0.0158811 25.9573 5.71025 15.8338 15.8338C5.71025 25.9573 0.0158811 39.6832 0 54V150C0.0158811 164.317 5.71025 178.043 15.8338 188.166C25.9573 198.29 39.6832 203.984 54 204H150C164.317 203.984 178.043 198.29 188.166 188.166C198.29 178.043 203.984 164.317 204 150V54C203.984 39.6832 198.29 25.9573 188.166 15.8338C178.043 5.71025 164.317 0.0158811 150 0ZM192 150C192 161.139 187.575 171.822 179.698 179.698C171.822 187.575 161.139 192 150 192H54C42.8609 192 32.178 187.575 24.3015 179.698C16.425 171.822 12 161.139 12 150V54C12 42.8609 16.425 32.178 24.3015 24.3015C32.178 16.425 42.8609 12 54 12H150C161.139 12 171.822 16.425 179.698 24.3015C187.575 32.178 192 42.8609 192 54V150ZM164 50C164 51.9778 163.414 53.9112 162.315 55.5557C161.216 57.2002 159.654 58.4819 157.827 59.2388C156 59.9957 153.989 60.1937 152.049 59.8079C150.109 59.422 148.327 58.4696 146.929 57.0711C145.53 55.6725 144.578 53.8907 144.192 51.9509C143.806 50.0111 144.004 48.0004 144.761 46.1732C145.518 44.3459 146.8 42.7841 148.444 41.6853C150.089 40.5865 152.022 40 154 40C156.652 40 159.196 41.0536 161.071 42.9289C162.946 44.8043 164 47.3478 164 50Z" fill="black"/>
</svg>
